<?xml version="1.0" encoding="UTF-8"?>
<svg version="1.1" xmlns="http://www.w3.org/2000/svg" width="341" height="324">
<path d="M0 0 C112.53 0 225.06 0 341 0 C341 106.92 341 213.84 341 324 C228.47 324 115.94 324 0 324 C0 217.08 0 110.16 0 0 Z " fill="#FF3131" transform="translate(0,0)"/>
<path d="M0 0 C51.15 0 102.3 0 155 0 C155 106.92 155 213.84 155 324 C103.19 324 51.38 324 -2 324 C-2 323.67 -2 323.34 -2 323 C-1.32646484 322.90501221 -0.65292969 322.81002441 0.04101562 322.7121582 C13.39828704 320.79438364 26.34263614 318.83529289 39 314 C39.73879395 313.72172363 40.47758789 313.44344727 41.23876953 313.15673828 C79.65409824 298.45379008 112.21440824 269.9353921 129.89697266 232.47851562 C139.9745423 209.83409619 145.44776584 187.65041885 145.3125 162.8125 C145.31034485 162.09422028 145.3081897 161.37594055 145.30596924 160.63589478 C145.09815935 117.27870309 128.20970128 77.32606235 97.58154297 46.54248047 C83.85636937 33.15630467 68.42304057 22.9199387 51 15 C50.30616211 14.68401855 49.61232422 14.36803711 48.89746094 14.04248047 C33.04573841 6.93289181 17.10585351 3.61339429 0 1 C0 0.67 0 0.34 0 0 Z " fill="#FFFDFD" transform="translate(186,0)"/>
<path d="M0 0 C51.81 0 103.62 0 157 0 C157 0.33 157 0.66 157 1 C155.98353394 1.12677124 155.98353394 1.12677124 154.9465332 1.25610352 C118.68756456 5.92412857 87.06439168 19.06619116 60 44 C59.47100098 44.47985352 58.94200195 44.95970703 58.39697266 45.45410156 C39.90096128 62.40184196 26.32593778 84.41815228 18 108 C17.77473633 108.62551758 17.54947266 109.25103516 17.31738281 109.89550781 C11.45859901 126.36863603 9.46446939 143.06186248 9.55395508 160.47949219 C9.56250059 163.00017316 9.53347112 165.51860043 9.50195312 168.0390625 C9.43141074 184.05947234 12.54684809 199.05105807 17.75 214.1875 C18.09434082 215.19941406 18.43868164 216.21132812 18.79345703 217.25390625 C21.82452091 225.92117759 25.43767832 234.03765255 30 242 C30.56025879 242.9885498 30.56025879 242.9885498 31.13183594 243.99707031 C37.04435529 254.29105697 43.92218681 263.31786163 52 272 C52.51433594 272.55816406 53.02867188 273.11632812 53.55859375 273.69140625 C80.7490901 302.91610433 117.77690021 318.60331035 157 323 C157 323.33 157 323.66 157 324 C105.19 324 53.38 324 0 324 C0 217.08 0 110.16 0 0 Z " fill="#FFFDFD" transform="translate(0,0)"/>
<path d="M0 0 C0.83265381 0.00523682 1.66530762 0.01047363 2.52319336 0.01586914 C3.42231445 0.0190918 4.32143555 0.02231445 5.24780273 0.02563477 C6.66609375 0.03820312 6.66609375 0.03820312 8.11303711 0.05102539 C9.06243164 0.05553711 10.01182617 0.06004883 10.98999023 0.06469727 C13.34356776 0.07652429 15.69702188 0.09300514 18.05053711 0.11352539 C21.80314746 8.67100826 24.8443099 17.31868172 27.61303711 26.23852539 C29.85839462 33.44383498 32.13853781 40.55284064 35.01708984 47.53149414 C37.12739866 52.80402569 38.9424771 58.18565016 40.80053711 63.55102539 C41.21174805 64.72084961 41.62295898 65.89067383 42.04663086 67.09594727 C42.43463867 68.21420898 42.82264648 69.3324707 43.22241211 70.48461914 C43.57400391 71.49451904 43.9255957 72.50441895 44.2878418 73.54492188 C45.05053711 76.11352539 45.05053711 76.11352539 45.05053711 79.11352539 C39.77053711 79.11352539 34.49053711 79.11352539 29.05053711 79.11352539 C26.08053711 70.69852539 26.08053711 70.69852539 23.05053711 62.11352539 C12.82053711 61.78352539 2.59053711 61.45352539 -7.94946289 61.11352539 C-8.60946289 64.08352539 -9.26946289 67.05352539 -9.94946289 70.11352539 C-10.85889651 73.15470478 -11.90235766 76.11499677 -12.94946289 79.11352539 C-18.22946289 79.11352539 -23.50946289 79.11352539 -28.94946289 79.11352539 C-27.38525481 70.99201565 -24.74876132 63.34219156 -22.01196289 55.55102539 C-21.56426057 54.26276561 -21.11699224 52.97435492 -20.67016602 51.68579102 C-18.97949355 46.83046189 -17.28385694 41.98115672 -15.46533203 37.17211914 C-13.9923297 33.26298744 -12.62521651 29.32387952 -11.28540039 25.36743164 C-10.79852027 23.93966349 -10.3115383 22.51193006 -9.82446289 21.08422852 C-9.06836648 18.86369014 -8.31320934 16.64284323 -7.55981445 14.42138672 C-6.82508633 12.25668098 -6.08676293 10.09322907 -5.34790039 7.92993164 C-5.00884171 6.92537682 -5.00884171 6.92537682 -4.66293335 5.90052795 C-2.6966094 0.15703486 -2.6966094 0.15703486 0 0 Z " fill="#FFFAFA" transform="translate(266.949462890625,124.886474609375)"/>
<path d="M0 0 C3.32707936 2.5934157 6.11586178 5.65531093 7.28515625 9.78125 C6.20524531 13.24350993 4.37489547 14.72779808 1.34765625 16.59375 C0.65800781 17.03332031 -0.03164062 17.47289062 -0.7421875 17.92578125 C-2.71484375 18.78125 -2.71484375 18.78125 -5.71484375 17.78125 C-6.27171875 16.853125 -6.82859375 15.925 -7.40234375 14.96875 C-10.3266613 10.93793391 -12.98292133 9.22847026 -17.71484375 7.78125 C-24.49251624 6.72694539 -30.12535788 7.74785707 -35.71484375 11.78125 C-39.95304751 15.62043712 -42.33506753 20.06034727 -42.91992188 25.79052734 C-43.01954692 28.04174849 -43.0436416 30.27789536 -43.02734375 32.53125 C-43.0224292 33.32821289 -43.01751465 34.12517578 -43.01245117 34.94628906 C-42.83194649 44.03631967 -41.38275794 51.27596786 -34.71484375 57.78125 C-31.07107328 60.2188068 -27.64341249 60.08086506 -23.33984375 60.09375 C-22.05335938 60.11050781 -20.766875 60.12726563 -19.44140625 60.14453125 C-15.40593326 59.75113608 -13.07885799 59.02716702 -9.71484375 56.78125 C-7.96029347 54.34914044 -7.96029347 54.34914044 -6.83984375 51.59375 C-6.42992187 50.69269531 -6.02 49.79164063 -5.59765625 48.86328125 C-5.30632812 48.17621094 -5.015 47.48914063 -4.71484375 46.78125 C-1.2681475 47.35469333 1.5070379 48.21986578 4.59765625 49.84375 C5.29503906 50.20597656 5.99242187 50.56820312 6.7109375 50.94140625 C7.23042969 51.21855469 7.74992187 51.49570313 8.28515625 51.78125 C7.97119296 57.90353416 5.16924804 62.22945271 1.28515625 66.78125 C-7.57570466 74.61139163 -17.28696747 75.46931585 -28.71484375 74.78125 C-38.28830609 73.91348002 -44.98908645 69.93825405 -51.52734375 62.96875 C-60.8767722 51.62361988 -60.51647661 37.76825888 -59.71484375 23.78125 C-58.29122457 13.85210942 -52.61740311 5.52897613 -44.8828125 -0.7109375 C-31.78441695 -9.8208126 -13.13579187 -8.2834669 0 0 Z " fill="#FFFAFA" transform="translate(194.71484375,130.21875)"/>
<path d="M0 0 C2.54748022 -0.24506639 5.07137 -0.42162549 7.625 -0.5625 C8.69427734 -0.67561523 8.69427734 -0.67561523 9.78515625 -0.79101562 C12.12757093 -0.88772082 13.78467742 -0.78656027 16 0 C18.62535287 2.64798522 20.24768261 5.73073778 22 9 C23.04670823 10.81259631 24.09358637 12.62509452 25.140625 14.4375 C26.71911536 17.24943383 28.28713713 20.06693742 29.8515625 22.88671875 C30.35945313 23.79035156 30.86734375 24.69398438 31.390625 25.625 C32.0717334 26.85089844 32.0717334 26.85089844 32.76660156 28.1015625 C33.86555199 30.14377087 33.86555199 30.14377087 36 31 C36.26353271 30.29713867 36.52706543 29.59427734 36.79858398 28.87011719 C38.08349308 25.80053959 39.59382558 22.9796596 41.22265625 20.078125 C42.15368164 18.41716797 42.15368164 18.41716797 43.10351562 16.72265625 C43.74998047 15.57667969 44.39644531 14.43070313 45.0625 13.25 C45.719643 12.07695843 46.37654642 10.90378261 47.03320312 9.73046875 C51.86215996 1.13784004 51.86215996 1.13784004 53 0 C55.69654854 -0.07319621 58.36691458 -0.09242537 61.0625 -0.0625 C61.82111328 -0.05798828 62.57972656 -0.05347656 63.36132812 -0.04882812 C65.24091871 -0.0370068 67.12046899 -0.01907078 69 0 C66.87133357 5.65874271 63.89450158 10.78753385 60.95074463 16.05453491 C59.92408368 17.89910469 58.91012544 19.75023157 57.89794922 21.6027832 C52.23117215 31.91191144 52.23117215 31.91191144 49.04296875 35.98828125 C39.70700868 48.12539009 41.77960297 64.39208482 42 79 C37.05 79 32.1 79 27 79 C27.04382813 76.88722656 27.08765625 74.77445312 27.1328125 72.59765625 C27.2848139 57.23454278 27.14699639 44.98176179 17.61962891 32.31494141 C14.16931858 27.38340048 11.40240427 22.01513161 8.5 16.75 C7.88874268 15.66468994 7.27748535 14.57937988 6.64770508 13.46118164 C4.16366818 9.03671946 1.79710146 4.75438417 0 0 Z " fill="#FFFBFB" transform="translate(28,125)"/>
<path d="M0 0 C0.66 0 1.32 0 2 0 C5.83620014 10.18225464 9.45714079 20.19998553 11 31 C4.07 31 -2.86 31 -10 31 C-7.74746793 20.86360567 -7.74746793 20.86360567 -6.30859375 16.5625 C-5.85129883 15.19158203 -5.85129883 15.19158203 -5.38476562 13.79296875 C-5.07216797 12.87128906 -4.75957031 11.94960937 -4.4375 11 C-3.96280273 9.57107422 -3.96280273 9.57107422 -3.47851562 8.11328125 C-1.13375235 1.13375235 -1.13375235 1.13375235 0 0 Z " fill="#FF3A3A" transform="translate(274,142)"/>
<path d="M0 0 C3.125 2.125 3.125 2.125 5 5 C5.61304266 8.67825595 5.26122201 10.46568226 3.625 13.8125 C2 16 2 16 0 17 C-4.79640449 17.58492738 -8.68336661 18.00314925 -12.625 15 C-14.52383446 10.85708845 -14.57750587 8.54785873 -14 4 C-11.06065773 -1.34425868 -5.43609041 -1.00993602 0 0 Z " fill="#FFF8F8" transform="translate(226,187)"/>
<path d="M0 0 C3.125 2.125 3.125 2.125 5 5 C5.61304266 8.67825595 5.26122201 10.46568226 3.625 13.8125 C2 16 2 16 0 17 C-4.79640449 17.58492738 -8.68336661 18.00314925 -12.625 15 C-14.52383446 10.85708845 -14.57750587 8.54785873 -14 4 C-11.06065773 -1.34425868 -5.43609041 -1.00993602 0 0 Z " fill="#FFF8F8" transform="translate(118,187)"/>
</svg>
